<svg width="22" height="24" viewBox="0 0 22 24" fill="none" xmlns="http://www.w3.org/2000/svg">
<path d="M7.76419 3.79354C8.42212 1.86816 11.0824 1.80985 11.8625 3.6186L11.9285 3.79464L12.8164 6.39114C13.0198 6.98662 13.3487 7.53153 13.7806 7.98912C14.2126 8.44671 14.7377 8.80635 15.3205 9.04376L15.5592 9.13288L18.1557 10.0196C20.0811 10.6776 20.1394 13.3379 18.3317 14.1179L18.1557 14.184L15.5592 15.0718C14.9635 15.2752 14.4184 15.6039 13.9606 16.0359C13.5028 16.4679 13.143 16.993 12.9055 17.5759L12.8164 17.8136L11.9296 20.4112C11.2717 22.3365 8.61135 22.3949 7.8324 20.5872L7.76419 20.4112L6.87742 17.8147C6.67407 17.219 6.34532 16.6739 5.91334 16.2161C5.48137 15.7583 4.95621 15.3985 4.37333 15.1609L4.13568 15.0718L1.53918 14.1851C-0.387297 13.5271 -0.445608 10.8668 1.36314 10.0879L1.53918 10.0196L4.13568 9.13288C4.73116 8.9294 5.27607 8.60059 5.73366 8.16862C6.19125 7.73665 6.55089 7.21156 6.7883 6.62879L6.87742 6.39114L7.76419 3.79354ZM9.84689 4.50428L8.96012 7.10078C8.65029 8.00879 8.14626 8.83835 7.48312 9.5317C6.81999 10.225 6.01369 10.7655 5.12037 11.1155L4.84532 11.2156L2.24882 12.1024L4.84532 12.9891C5.75333 13.299 6.58289 13.803 7.27624 14.4661C7.96959 15.1293 8.51005 15.9356 8.86 16.8289L8.96012 17.1039L9.84689 19.7004L10.7337 17.1039C11.0435 16.1959 11.5475 15.3664 12.2107 14.673C12.8738 13.9797 13.6801 13.4392 14.5734 13.0892L14.8485 12.9902L17.445 12.1024L14.8485 11.2156C13.9405 10.9058 13.1109 10.4017 12.4175 9.73858C11.7242 9.07545 11.1837 8.26915 10.8338 7.37584L10.7348 7.10078L9.84689 4.50428ZM18.6486 1.98795e-07C18.8544 -2.5962e-07 19.0561 0.0577374 19.2308 0.166651C19.4054 0.275565 19.546 0.431287 19.6366 0.61612L19.6894 0.744845L20.0745 1.87366L21.2044 2.25874C21.4107 2.32882 21.5915 2.45856 21.724 2.63151C21.8564 2.80446 21.9345 3.01285 21.9485 3.23025C21.9624 3.44766 21.9114 3.6643 21.8021 3.85272C21.6927 4.04113 21.5299 4.19285 21.3342 4.28863L21.2044 4.34144L20.0756 4.72652L19.6905 5.85644C19.6203 6.06265 19.4905 6.24338 19.3175 6.37573C19.1444 6.50808 18.936 6.58609 18.7186 6.59988C18.5012 6.61366 18.2846 6.56261 18.0963 6.45317C17.9079 6.34374 17.7563 6.18086 17.6606 5.98516L17.6078 5.85644L17.2227 4.72762L16.0928 4.34255C15.8865 4.27247 15.7057 4.14273 15.5733 3.96978C15.4408 3.79682 15.3627 3.58844 15.3488 3.37103C15.3349 3.15363 15.3858 2.93699 15.4952 2.74857C15.6045 2.56015 15.7673 2.40844 15.963 2.31265L16.0928 2.25984L17.2216 1.87476L17.6067 0.744845C17.6809 0.527471 17.8213 0.338765 18.0081 0.205189C18.195 0.0716118 18.4189 -0.000137836 18.6486 1.98795e-07Z" fill="#242729"/>
</svg>
