<svg width="20" height="20" viewBox="0 0 20 20" fill="none" xmlns="http://www.w3.org/2000/svg">
<path d="M9.99996 19.0082C9.42496 19.0082 8.88329 18.7165 8.49996 18.2082L7.24996 16.5415C7.22496 16.5082 7.12496 16.4665 7.08329 16.4582H6.66663C3.19163 16.4582 1.04163 15.5165 1.04163 10.8332V6.6665C1.04163 2.98317 2.98329 1.0415 6.66663 1.0415H13.3333C17.0166 1.0415 18.9583 2.98317 18.9583 6.6665V10.8332C18.9583 14.5165 17.0166 16.4582 13.3333 16.4582H12.9166C12.85 16.4582 12.7916 16.4915 12.75 16.5415L11.5 18.2082C11.1166 18.7165 10.575 19.0082 9.99996 19.0082ZM6.66663 2.2915C3.68329 2.2915 2.29163 3.68317 2.29163 6.6665V10.8332C2.29163 14.5998 3.58329 15.2082 6.66663 15.2082H7.08329C7.50829 15.2082 7.99163 15.4498 8.24996 15.7915L9.49996 17.4582C9.79163 17.8415 10.2083 17.8415 10.5 17.4582L11.75 15.7915C12.025 15.4248 12.4583 15.2082 12.9166 15.2082H13.3333C16.3166 15.2082 17.7083 13.8165 17.7083 10.8332V6.6665C17.7083 3.68317 16.3166 2.2915 13.3333 2.2915H6.66663Z" fill="#242729"/>
<path d="M14.1667 7.2915H5.83337C5.49171 7.2915 5.20837 7.00817 5.20837 6.6665C5.20837 6.32484 5.49171 6.0415 5.83337 6.0415H14.1667C14.5084 6.0415 14.7917 6.32484 14.7917 6.6665C14.7917 7.00817 14.5084 7.2915 14.1667 7.2915Z" fill="#242729"/>
<path d="M10.8334 11.4585H5.83337C5.49171 11.4585 5.20837 11.1752 5.20837 10.8335C5.20837 10.4918 5.49171 10.2085 5.83337 10.2085H10.8334C11.175 10.2085 11.4584 10.4918 11.4584 10.8335C11.4584 11.1752 11.175 11.4585 10.8334 11.4585Z" fill="#242729"/>
</svg>
