<svg width="20" height="20" viewBox="0 0 20 20" fill="none" xmlns="http://www.w3.org/2000/svg">
<g clip-path="url(#clip0_70_828)">
<path d="M9.99996 13.5415C7.81663 13.5415 6.04163 11.7665 6.04163 9.58317V4.99984C6.04163 2.8165 7.81663 1.0415 9.99996 1.0415C12.1833 1.0415 13.9583 2.8165 13.9583 4.99984V9.58317C13.9583 11.7665 12.1833 13.5415 9.99996 13.5415ZM9.99996 2.2915C8.50829 2.2915 7.29163 3.50817 7.29163 4.99984V9.58317C7.29163 11.0748 8.50829 12.2915 9.99996 12.2915C11.4916 12.2915 12.7083 11.0748 12.7083 9.58317V4.99984C12.7083 3.50817 11.4916 2.2915 9.99996 2.2915Z" fill="#242729"/>
<path d="M10 16.4582C6.14167 16.4582 3 13.3165 3 9.45817V8.0415C3 7.69984 3.28333 7.4165 3.625 7.4165C3.96667 7.4165 4.25 7.69984 4.25 8.0415V9.45817C4.25 12.6248 6.83333 15.2082 10 15.2082C13.1667 15.2082 15.75 12.6248 15.75 9.45817V8.0415C15.75 7.69984 16.0333 7.4165 16.375 7.4165C16.7167 7.4165 17 7.69984 17 8.0415V9.45817C17 13.3165 13.8583 16.4582 10 16.4582Z" fill="#242729"/>
<path d="M11.1584 5.98343C11.0917 5.98343 11.0167 5.9751 10.9417 5.9501C10.3334 5.7251 9.66673 5.7251 9.05839 5.9501C8.73339 6.06676 8.37506 5.9001 8.25839 5.5751C8.14173 5.2501 8.30839 4.89176 8.63339 4.7751C9.51673 4.45843 10.4917 4.45843 11.3751 4.7751C11.7001 4.89176 11.8667 5.2501 11.7501 5.5751C11.6501 5.8251 11.4084 5.98343 11.1584 5.98343Z" fill="#242729"/>
<path d="M10.6667 7.7501C10.6084 7.7501 10.5584 7.74176 10.5 7.7251C10.1667 7.63343 9.82502 7.63343 9.49169 7.7251C9.15836 7.81676 8.81669 7.61676 8.72502 7.28343C8.63336 6.95843 8.83336 6.61676 9.16669 6.5251C9.70836 6.3751 10.2917 6.3751 10.8334 6.5251C11.1667 6.61676 11.3667 6.95843 11.275 7.29176C11.2 7.56676 10.9417 7.7501 10.6667 7.7501Z" fill="#242729"/>
<path d="M10 18.9585C9.65833 18.9585 9.375 18.6752 9.375 18.3335V15.8335C9.375 15.4918 9.65833 15.2085 10 15.2085C10.3417 15.2085 10.625 15.4918 10.625 15.8335V18.3335C10.625 18.6752 10.3417 18.9585 10 18.9585Z" fill="#242729"/>
</g>
<defs>
<clipPath id="clip0_70_828">
<rect width="20" height="20" fill="white"/>
</clipPath>
</defs>
</svg>
